<?xml version="1.0" encoding="UTF-8"?>
<svg id="Layer_2" data-name="Layer 2" xmlns="http://www.w3.org/2000/svg" viewBox="0 0 429.85 429.85">
  <defs>
    <style>
      .cls-1 {
        stroke-width: 2px;
      }

      .cls-1, .cls-2, .cls-3, .cls-4, .cls-5 {
        stroke: #231f20;
        stroke-miterlimit: 10;
      }

      .cls-1, .cls-6, .cls-3, .cls-5 {
        fill: #fff;
      }

      .cls-2 {
        fill: #cb9844;
      }

      .cls-2, .cls-5 {
        stroke-width: .75px;
      }

      .cls-3, .cls-4 {
        stroke-width: .5px;
      }

      .cls-4 {
        fill: #fffef1;
      }

      .cls-7 {
        fill: #cfcca9;
      }
    </style>
  </defs>
  <g id="Layer_1-2" data-name="Layer 1">
    <circle class="cls-5" cx="214.93" cy="214.93" r="214.55"/>
    <path class="cls-2" d="m429.48,214.93c0,16.78-1.93,33.1-5.57,48.77-22.08-95-109.66-119.6-211.38-119.6S28.03,168.7,5.95,263.7c-3.64-15.67-5.57-31.99-5.57-48.77C.38,96.44,96.44.38,214.93.38s214.55,96.06,214.55,214.55Z"/>
    <g>
      <g>
        <circle class="cls-1" cx="88.15" cy="93.61" r="43.64"/>
        <circle cx="88.15" cy="93.61" r="33.54"/>
        <circle class="cls-6" cx="81.39" cy="100.75" r="18.71"/>
      </g>
      <g>
        <circle class="cls-1" cx="341.7" cy="93.61" r="43.64"/>
        <circle cx="341.7" cy="93.61" r="33.54"/>
        <circle class="cls-6" cx="335.6" cy="85.26" r="18.71"/>
      </g>
    </g>
    <path class="cls-7" d="m385.34,208.24c-1.15,40.28-57.15,72.74-126.06,72.74-14.71,0-28.83-1.48-41.95-4.2-13.01,2.72-27.03,4.2-41.62,4.2-68.32,0-123.85-32.41-125.06-72.66v-.04c.17-7.59,1.88-14.97,4.97-22.04,18.17-41.71,83.99-72.61,162.39-72.61s144.88,31.21,162.66,73.25c2.91,6.86,4.52,14.01,4.69,21.36Z"/>
    <path class="cls-3" d="m103.49,323.35c1.02,6.23,2.42,12.22,4.16,17.93-13.44-13.64-24.06-35.27-28.19-60.64-2.07-12.67-2.3-24.98-.96-36.26l49.35-8.04c-20.03,13.53-30.62,48.55-24.35,87.01Z"/>
    <path class="cls-3" d="m328.49,323.35c-1.02,6.23-2.42,12.22-4.16,17.93,13.44-13.64,24.06-35.27,28.19-60.64,2.07-12.67,2.3-24.98.96-36.26l-49.35-8.04c20.03,13.53,30.62,48.55,24.35,87.01Z"/>
    <path class="cls-4" d="m385.34,198.84c-1.15,40.28-57.15,72.74-126.06,72.74-14.71,0-28.83-1.48-41.95-4.2-13.01,2.72-27.03,4.2-41.62,4.2-68.32,0-123.85-32.41-125.06-72.66v-.04c.17-7.59,1.88-14.97,4.97-22.04,18.17-41.71,83.99-72.61,162.39-72.61s144.88,31.21,162.66,73.25c2.91,6.86,4.52,14.01,4.69,21.36Z"/>
  </g>
</svg>